
<svg width="1440" height="900" viewBox="0 0 1440 900" fill="none" xmlns="http://www.w3.org/2000/svg">
  <g opacity="0.05">
    <rect width="1440" height="900" fill="white"/>
    <path d="M0 0H1440V900H0V0Z" fill="url(#paint0_linear)"/>
    <g opacity="0.2">
      <line x1="72.5" y1="2.18557e-08" x2="72.5" y2="900" stroke="#E1E1E1"/>
      <line x1="144.5" y1="2.18557e-08" x2="144.5" y2="900" stroke="#E1E1E1"/>
      <line x1="216.5" y1="2.18557e-08" x2="216.5" y2="900" stroke="#E1E1E1"/>
      <line x1="288.5" y1="2.18557e-08" x2="288.5" y2="900" stroke="#E1E1E1"/>
      <line x1="360.5" y1="2.18557e-08" x2="360.5" y2="900" stroke="#E1E1E1"/>
      <line x1="432.5" y1="2.18557e-08" x2="432.5" y2="900" stroke="#E1E1E1"/>
      <line x1="504.5" y1="2.18557e-08" x2="504.5" y2="900" stroke="#E1E1E1"/>
      <line x1="576.5" y1="2.18557e-08" x2="576.5" y2="900" stroke="#E1E1E1"/>
      <line x1="648.5" y1="2.18557e-08" x2="648.5" y2="900" stroke="#E1E1E1"/>
      <line x1="720.5" y1="2.18557e-08" x2="720.5" y2="900" stroke="#E1E1E1"/>
      <line x1="792.5" y1="2.18557e-08" x2="792.5" y2="900" stroke="#E1E1E1"/>
      <line x1="864.5" y1="2.18557e-08" x2="864.5" y2="900" stroke="#E1E1E1"/>
      <line x1="936.5" y1="2.18557e-08" x2="936.5" y2="900" stroke="#E1E1E1"/>
      <line x1="1008.5" y1="2.18557e-08" x2="1008.5" y2="900" stroke="#E1E1E1"/>
      <line x1="1080.5" y1="2.18557e-08" x2="1080.5" y2="900" stroke="#E1E1E1"/>
      <line x1="1152.5" y1="2.18557e-08" x2="1152.5" y2="900" stroke="#E1E1E1"/>
      <line x1="1224.5" y1="2.18557e-08" x2="1224.5" y2="900" stroke="#E1E1E1"/>
      <line x1="1296.5" y1="2.18557e-08" x2="1296.5" y2="900" stroke="#E1E1E1"/>
      <line x1="1368.5" y1="2.18557e-08" x2="1368.5" y2="900" stroke="#E1E1E1"/>
    </g>
    <g opacity="0.2">
      <line y1="44.5" x2="1440" y2="44.5" stroke="#E1E1E1"/>
      <line y1="89.5" x2="1440" y2="89.5" stroke="#E1E1E1"/>
      <line y1="134.5" x2="1440" y2="134.5" stroke="#E1E1E1"/>
      <line y1="179.5" x2="1440" y2="179.5" stroke="#E1E1E1"/>
      <line y1="224.5" x2="1440" y2="224.5" stroke="#E1E1E1"/>
      <line y1="269.5" x2="1440" y2="269.5" stroke="#E1E1E1"/>
      <line y1="314.5" x2="1440" y2="314.5" stroke="#E1E1E1"/>
      <line y1="359.5" x2="1440" y2="359.5" stroke="#E1E1E1"/>
      <line y1="404.5" x2="1440" y2="404.5" stroke="#E1E1E1"/>
      <line y1="449.5" x2="1440" y2="449.5" stroke="#E1E1E1"/>
      <line y1="494.5" x2="1440" y2="494.5" stroke="#E1E1E1"/>
      <line y1="539.5" x2="1440" y2="539.5" stroke="#E1E1E1"/>
      <line y1="584.5" x2="1440" y2="584.5" stroke="#E1E1E1"/>
      <line y1="629.5" x2="1440" y2="629.5" stroke="#E1E1E1"/>
      <line y1="674.5" x2="1440" y2="674.5" stroke="#E1E1E1"/>
      <line y1="719.5" x2="1440" y2="719.5" stroke="#E1E1E1"/>
      <line y1="764.5" x2="1440" y2="764.5" stroke="#E1E1E1"/>
      <line y1="809.5" x2="1440" y2="809.5" stroke="#E1E1E1"/>
      <line y1="854.5" x2="1440" y2="854.5" stroke="#E1E1E1"/>
    </g>
  </g>
  <defs>
    <linearGradient id="paint0_linear" x1="0" y1="0" x2="1440" y2="900" gradientUnits="userSpaceOnUse">
      <stop stop-color="#E5DEFF"/>
      <stop offset="0.494792" stop-color="#F5F2EB"/>
      <stop offset="1" stop-color="#D3E4FD"/>
    </linearGradient>
  </defs>
</svg>
